<svg width="27" height="27" viewBox="0 0 27 27" fill="none" xmlns="http://www.w3.org/2000/svg">
<path d="M3.61781 23.4099C3.2542 23.4207 2.98109 23.0127 3.13059 22.6806C3.30435 22.2506 3.93084 22.2505 4.10455 22.6806C4.25436 23.0123 3.98104 23.4204 3.61781 23.4099Z" fill="#E5E5E5"/>
<path d="M18.8409 24.3346H8.61182C8.32056 24.3346 8.08447 24.0984 8.08447 23.8072V20.4465C8.08447 20.1553 8.32056 19.9191 8.61182 19.9191H18.8409C19.1321 19.9191 19.3682 20.1553 19.3682 20.4465V23.8072C19.3682 24.0984 19.1321 24.3346 18.8409 24.3346ZM9.13916 23.2799H18.3136V20.9738H9.13916V23.2799Z" fill="#E5E5E5"/>
<path d="M14.0081 19.0373C13.0958 19.0373 12.3535 18.2942 12.3535 17.3808C12.3535 16.4674 13.0958 15.7242 14.0081 15.7242C14.9204 15.7242 15.6626 16.4674 15.6626 17.3808C15.6626 18.2942 14.9204 19.0373 14.0081 19.0373ZM14.0081 16.7789C13.6773 16.7789 13.4082 17.0489 13.4082 17.3808C13.4082 17.7126 13.6773 17.9826 14.0081 17.9826C14.3389 17.9826 14.6079 17.7126 14.6079 17.3808C14.6079 17.0489 14.3388 16.7789 14.0081 16.7789Z" fill="#E5E5E5"/>
<path d="M17.7136 19.0373C16.8013 19.0373 16.0591 18.2942 16.0591 17.3808C16.0591 16.4674 16.8013 15.7242 17.7136 15.7242C18.626 15.7242 19.3682 16.4674 19.3682 17.3808C19.3682 18.2942 18.626 19.0373 17.7136 19.0373ZM17.7136 16.7789C17.3829 16.7789 17.1138 17.0489 17.1138 17.3808C17.1138 17.7126 17.3829 17.9826 17.7136 17.9826C18.0444 17.9826 18.3135 17.7126 18.3135 17.3808C18.3135 17.0489 18.0444 16.7789 17.7136 16.7789Z" fill="#E5E5E5"/>
<path d="M15.8609 9.28802C13.973 9.28802 12.437 7.74975 12.437 5.85902C12.437 3.96822 13.973 2.42996 15.8609 2.42996C17.7488 2.42996 19.2848 3.96822 19.2848 5.85902C19.2848 7.74975 17.7488 9.28802 15.8609 9.28802ZM15.8609 3.4846C14.5546 3.4846 13.4917 4.54973 13.4917 5.85896C13.4917 7.16815 14.5545 8.23328 15.8609 8.23328C17.1673 8.23328 18.2301 7.16815 18.2301 5.85896C18.2301 4.54973 17.1673 3.4846 15.8609 3.4846Z" fill="#E5E5E5"/>
<path d="M26.7579 11.9082C26.6071 11.8111 26.4172 11.7974 26.254 11.8718L22.1601 13.7371V12.3333C22.1601 11.2878 21.3106 10.4371 20.2664 10.4371H19.1341C20.5567 9.41399 21.4849 7.74305 21.4849 5.85901C21.4849 2.75306 18.9621 0.226135 15.8611 0.226135C13.6091 0.226135 11.6619 1.55889 10.7646 3.47826C9.86729 1.55889 7.92023 0.226135 5.66815 0.226135C2.56727 0.226083 0.0444023 2.75301 0.0444023 5.85901C0.0444023 7.74305 0.972685 9.41399 2.3952 10.4371H1.89374C0.849498 10.4371 0 11.2878 0 12.3333V24.8777C0 25.9233 0.849498 26.7739 1.89374 26.7739H20.2664C21.3106 26.7739 22.1601 25.9233 22.1601 24.8777V23.474L26.254 25.3392C26.3237 25.371 26.3982 25.3867 26.4726 25.3867C26.5723 25.3867 26.6716 25.3585 26.7579 25.3029C26.9088 25.2058 27 25.0387 27 24.8594V12.3517C27 12.1723 26.9088 12.0052 26.7579 11.9082ZM15.8611 1.28077C18.3805 1.28077 20.4302 3.33451 20.4302 5.85896C20.4302 8.38335 18.3806 10.4371 15.8611 10.4371C13.3417 10.4371 11.292 8.38335 11.292 5.85896C11.292 3.33451 13.3417 1.28077 15.8611 1.28077ZM12.5881 10.4371H8.94122C9.72174 9.87579 10.3534 9.11937 10.7647 8.23976C11.1759 9.11937 11.8076 9.87574 12.5881 10.4371ZM1.09909 5.85901C1.09909 3.33456 3.14877 1.28082 5.66826 1.28082C8.18764 1.28082 10.2374 3.33456 10.2374 5.85901C10.2374 8.3834 8.1877 10.4371 5.66826 10.4371C3.14877 10.4371 1.09909 8.3834 1.09909 5.85901ZM21.1055 24.8777C21.1055 25.3417 20.7291 25.7193 20.2665 25.7193H1.8938C1.43116 25.7193 1.05474 25.3417 1.05474 24.8777V12.3333C1.05474 11.8693 1.43116 11.4918 1.8938 11.4918H3.09055V20.6804C3.09055 20.9716 3.3267 21.2077 3.61789 21.2077C3.90909 21.2077 4.14524 20.9716 4.14524 20.6804V11.4918H20.2665C20.7291 11.4918 21.1055 11.8693 21.1055 12.3333V24.8777ZM25.9453 24.0396L22.1602 22.315V14.8961L25.9453 13.1715V24.0396Z" fill="#E5E5E5"/>
<path d="M5.66797 9.28802C3.78008 9.28802 2.24414 7.74975 2.24414 5.85902C2.24414 3.96822 3.78008 2.42996 5.66797 2.42996C7.55597 2.42996 9.09191 3.96822 9.09191 5.85902C9.09191 7.74975 7.55597 9.28802 5.66797 9.28802ZM5.66797 3.4846C4.36164 3.4846 3.29883 4.54973 3.29883 5.85896C3.29883 7.16815 4.36158 8.23328 5.66797 8.23328C6.97436 8.23328 8.03722 7.16815 8.03722 5.85896C8.03722 4.54973 6.97441 3.4846 5.66797 3.4846Z" fill="#E5E5E5"/>
</svg>
